<?xml version="1.0" encoding="UTF-8"?>
<svg width="3002px" height="473px" viewBox="0 0 3002 473" version="1.1" xmlns="http://www.w3.org/2000/svg" xmlns:xlink="http://www.w3.org/1999/xlink">
    <title>Pathcarpark</title>
    <defs>
        <filter color-interpolation-filters="auto" id="filter-1">
            <feColorMatrix in="SourceGraphic" type="matrix" values="0 0 0 0 1.000000 0 0 0 0 1.000000 0 0 0 0 1.000000 0 0 0 1.000000 0"></feColorMatrix>
        </filter>
        <linearGradient x1="50%" y1="0%" x2="50%" y2="100%" id="linearGradient-2">
            <stop stop-color="#EDEBFF" stop-opacity="0.5" offset="0%"></stop>
            <stop stop-color="#000000" stop-opacity="0.5" offset="100%"></stop>
        </linearGradient>
        <polygon id="path-3" points="109.967509 423.559857 101.881911 435.33103 297.869141 438.132812 306.119141 423.559857 219.304688 420.535156 487.75 24.6484375 871.818359 29.8066406 709.306641 423.559857 612.972656 423.559857 603.054688 441.027344 808.054688 444.232422 816.515625 423.559857 735.34375 423.559857 893.501953 29.8066406 1273.44922 32.3964844 1216.3125 432.53125 1143.35547 432.53125 1136.125 448.746094 1351.68164 448.746094 1355.41797 432.53125 1240.28516 432.53125 1298.89453 32.3964844 1676.50586 32.3964844 1741.84961 441.027344 1660.40234 441.027344 1660.40234 457.507813 1858.36523 457.507813 1851.63867 441.027344 1767.80469 441.027344 1695.78516 32.3964844 2066.11133 35.671875 2255.97656 448.746094 2153.31055 444.232422 2157.83398 460.626953 2375.41406 464.033203 2367.86719 448.746094 2281.75586 448.746094 2092.62305 32.3964844 2474.30664 35.671875 2764.57422 454.304688 2672.8418 454.304688 2682.03906 468.324219 2887.22461 471.470703 2873.42187 457.507813 2790.71094 454.304687 2494.42969 35.671875 2867.37891 35.671875 3000 166.9375 3000 147.298828 2877.66016 24.6484375 0 -3.27148519e-15 0 15.3789062 67.9335938 15.3789062 0 82.2304688 0 101.757813 87.3710938 15.3789062 462.292969 24.6484375 194.644531 420.535156"></polygon>
    </defs>
    <g id="Page-1" stroke="none" stroke-width="1" fill="none" fill-rule="evenodd">
        <g id="Path" transform="translate(1.000000, 1.078125)" filter="url(#filter-1)">
            <g>
                <use fill="#490675" xlink:href="#path-3"></use>
                <use stroke="#E3E3E3" stroke-width="1" fill="url(#linearGradient-2)" xlink:href="#path-3"></use>
            </g>
        </g>
    </g>
</svg>